<?xml version="1.0" encoding="utf-8"?>
<!-- Generator: Adobe Illustrator 25.4.1, SVG Export Plug-In . SVG Version: 6.00 Build 0)  -->
<svg version="1.1" id="Layer_1" xmlns="http://www.w3.org/2000/svg" xmlns:xlink="http://www.w3.org/1999/xlink" x="0px" y="0px"
	 viewBox="0 0 841.89 595.28" style="enable-background:new 0 0 841.89 595.28;" xml:space="preserve">
<style type="text/css">
	.st0{fill:#364049;}
	.st1{fill:#6D6957;}
	.st2{fill:#7C796A;}
	.st3{fill:none;stroke:#364049;stroke-width:29;stroke-miterlimit:10;}
	.st4{fill:none;stroke:#7C796A;stroke-width:25;stroke-miterlimit:10;}
	.st5{fill:#A49B72;}
</style>
<path class="st0" d="M472.31,210.35c-4.59,8.73-9.19,17.46-13.78,26.18c-2.51-1.18-5.07-2.25-7.51-3.56
	c-6.16-3.31-12.01-7.24-18.63-9.67c3.24-9.99,8.83-18.53,15.97-26.14C447.99,196.96,464.13,205.85,472.31,210.35z"/>
<path class="st1" d="M556.26,132.49c-0.35-0.52-0.7-1.04-1.06-1.55C555.56,131.45,555.91,131.97,556.26,132.49z"/>
<path class="st2" d="M450.48,266.22c-9.32-5.1-20.65-10.21-29.97-15.31c1.77-9.94,5.79-19.38,11.89-27.61
	c6.62,2.44,12.46,6.36,18.63,9.67c2.44,1.31,5,2.38,7.51,3.56c0.04,3.63-1.86,6.69-3.14,9.86
	C452.81,252.85,453.65,259.98,450.48,266.22z"/>
<g id="Layer_2">
	<path class="st3" d="M469.76,222.49c-8.96-5.08-22.88-9.95-31.73-14.61"/>
	<path class="st4" d="M458.82,246.91c-11-6.28-25.33-11.4-33.62-15.85"/>
	<path class="st5" d="M388.17,384.55c-31.96,52.11-80.19,80.59-80.19,80.59c-31.78-20.58-40.04-86.27-40.34-97.58
		c-0.1-4.08-2.09-27.45,4.34-60.09c0.65,0.54,1.3,1.07,1.94,1.6c18.92,13.67,37.68,27.55,57.3,40.23
		c17.11,11.06,34.43,21.77,52.07,31.97c1.53,0.88,3.44,1.3,4.41,3.03C387.86,384.39,388.01,384.47,388.17,384.55z"/>
	<path class="st5" d="M539.84,119.5c-49.53,28.94-79.37,58.04-97.35,84.64c-0.02,0.03-0.04,0.06-0.06,0.09
		c-1,1.48-1.97,2.95-2.89,4.42c-1.17,1.85-2.29,3.68-3.34,5.5c-3.08,5.28-5.7,10.43-7.94,15.45c-0.37,0.83-0.73,1.66-1.07,2.48
		c-2.8,6.56-4.95,12.88-6.58,18.89c-7.43,27.15-4.68,48.11-5.79,58.1c-0.72,6.47-1.8,12.76-3.19,18.86
		c-2.36,10.42-5.63,20.3-9.54,29.61c-4.04,9.61-8.77,18.61-13.92,27.01c-0.16-0.08-0.31-0.16-0.47-0.25
		c-0.97-1.73-2.88-2.15-4.41-3.03c-17.64-10.2-34.96-20.91-52.07-31.97c-19.62-12.68-38.38-26.56-57.3-40.23
		c-0.64-0.53-1.29-1.06-1.94-1.6c1.94-9.88,4.66-20.62,8.44-31.93c3.13-9.4,6.99-19.19,11.75-29.21
		c6.69-14.09,15.13-28.64,25.8-43.22c5.83-7.96,12.32-15.94,19.56-23.85c7.21-7.89,15.16-15.72,23.92-23.41
		C465.62,64.37,539.84,119.5,539.84,119.5z"/>
	<path class="st1" d="M499.14,439.68c-103.29,89.43-176.71,34.9-176.71,34.9c55.36-1.53,103.89-20.16,142.73-50.32
		c0.14,0.19,0.27,0.4,0.42,0.58C477.06,429.11,488.37,433.81,499.14,439.68z"/>
	<path class="st1" d="M589.42,287.89c-2.08,9.96-4.88,20.57-8.61,31.59c0,0,0,0,0,0.01c-3.16,9.38-7,19.05-11.65,28.88
		c-6.76,14.31-15.23,28.95-25.82,43.47c-5.98,8.21-12.63,16.38-20.05,24.44c-6.83,7.44-14.31,14.77-22.48,21.95
		c-0.56,0.49-1.11,0.98-1.67,1.45c-10.77-5.87-22.08-10.57-33.56-14.84c-0.15-0.18-0.28-0.39-0.42-0.58
		c8.75-6.8,17.02-14.18,24.76-22.08c7.3-7.47,14.15-15.4,20.49-23.75c50.37-66.21,69.55-158.34,43.87-249.5
		c31.79,20.58,38.84,74.52,40.05,86.28C595,221.7,597.31,250.15,589.42,287.89z"/>
	<path class="st5" d="M465.16,424.26c-38.84,30.16-87.37,48.79-142.73,50.32c44.31-25.89,72.86-51.92,91.26-76.16
		c0.16,0.08,0.31,0.16,0.47,0.25c16.83,8.36,33.65,16.7,50.47,25.08C464.84,423.85,465,424.05,465.16,424.26z"/>
	<path class="st5" d="M510.41,378.43c-6.34,8.35-13.19,16.28-20.49,23.75c-7.74,7.9-16.01,15.28-24.76,22.08
		c-0.16-0.21-0.32-0.41-0.53-0.51c-16.82-8.38-33.64-16.72-50.47-25.08c-0.16-0.09-0.31-0.17-0.47-0.25
		c6.66-8.77,11.98-17.3,16.24-25.51c5.13-9.88,8.73-19.29,11.25-28.07c8.02-28,5.13-49.63,6.26-59.84
		c0.74-6.63,1.85-13.08,3.3-19.32c0.72-3.19,1.54-6.32,2.44-9.4c1.04-3.6,2.19-7.14,3.43-10.6c3.08-8.59,6.74-16.74,10.81-24.45
		c31.39-59.54,86.86-92.3,86.86-92.3C579.96,220.09,560.78,312.22,510.41,378.43z"/>
	<path class="st0" d="M652.9,470.67c-19.55,4.34-38.99,2.23-58.33-1.47c-30.89-5.91-60.41-16.3-89.57-27.82
		c-1.82-0.71-3.5-1.97-5.64-1.58c-0.07-0.04-0.15-0.08-0.22-0.12c-10.77-5.87-22.08-10.57-33.56-14.84
		c-0.15-0.18-0.28-0.39-0.42-0.58c-0.16-0.21-0.32-0.41-0.53-0.51c-16.82-8.38-33.64-16.72-50.47-25.08
		c-0.16-0.09-0.31-0.17-0.47-0.25c-8.51-4.63-17.01-9.24-25.52-13.87c-0.16-0.08-0.31-0.16-0.47-0.25
		c-0.97-1.73-2.88-2.15-4.41-3.03c-17.64-10.2-34.96-20.91-52.07-31.97c-19.62-12.68-38.38-26.56-57.3-40.23
		c-0.64-0.53-1.29-1.06-1.94-1.6c-13.17-10.83-26.57-21.41-39.13-32.98c-18.98-17.48-36.99-35.81-50.87-57.75
		c-6.69-10.57-12.22-21.73-13.86-34.28c-3.67-27.95,10.76-49.44,38.05-56.92c18.2-5,36.53-3.51,54.81-0.46
		c34.84,5.82,67.85,17.66,100.47,30.77c-7.18,7.56-14.34,15.14-21.57,22.67c-0.51,0.53-1.46,0.64-2.21,0.94
		c-0.04-0.07-0.09-0.14-0.14-0.2c-0.05-0.08-0.11-0.15-0.17-0.22s-0.12-0.14-0.18-0.2c-0.89-0.87-2.15-1.08-3.29-1.52
		c-29.78-11.44-60.08-21.06-91.95-24.53c-10.38-1.13-20.91-1.03-30.99,2.74c-9.36,3.5-13.02,8.93-13.16,18.8
		c-0.11,7.45,2.52,14.06,6.05,20.26c12.39,21.75,29.54,39.46,47.86,56.26c1.75,1.6,3.51,3.19,5.27,4.77
		c0.95,0.86,1.91,1.7,2.86,2.54c0.59,0.53,1.19,1.06,1.79,1.58c0.04,0.03,0.08,0.07,0.11,0.1c1.27,1.11,2.54,2.21,3.82,3.31
		c1.31,1.13,2.62,2.24,3.93,3.35c0.49,0.42,0.98,0.83,1.48,1.25c0.71,0.6,1.42,1.2,2.14,1.79c0.95,0.79,1.89,1.57,2.84,2.35
		c1.49,1.23,2.98,2.45,4.48,3.65c0.81,0.66,1.62,1.31,2.43,1.95c0.73,0.59,1.46,1.18,2.2,1.76c8.53,6.78,17.23,13.35,26.06,19.73
		c0.94,0.68,1.87,1.36,2.82,2.03c0.3,0.23,0.61,0.45,0.93,0.67c1.48,1.06,2.97,2.12,4.46,3.16c2.57,1.81,5.14,3.61,7.73,5.39
		c2.29,1.57,4.59,3.14,6.89,4.7s4.6,3.11,6.91,4.65c0.73,0.49,1.45,0.97,2.18,1.46c2.76,1.83,5.52,3.65,8.3,5.45
		c2.17,1.42,4.35,2.82,6.53,4.22c0.59,0.37,1.18,0.75,1.77,1.13c2.15,1.37,4.3,2.73,6.46,4.09c3.34,2.1,6.7,4.18,10.07,6.25
		c1.54,0.94,3.08,1.88,4.62,2.81c0.74,0.45,1.47,0.89,2.21,1.33c1.58,0.95,3.17,1.9,4.75,2.84c1.59,0.95,3.18,1.89,4.77,2.82
		c1.59,0.94,3.19,1.87,4.78,2.79c0.28,0.17,0.57,0.34,0.85,0.49c0.88,0.52,1.75,1.02,2.63,1.52c0.44,0.26,0.88,0.51,1.32,0.76
		c2.05,1.18,4.11,2.35,6.18,3.51c7.17,4.05,14.39,8.01,21.66,11.86c2.31,1.23,4.62,2.45,6.93,3.66c0,0,0.01,0,0.02,0.01
		c2.33,1.21,4.66,2.41,6.99,3.6c0.53,0.28,1.06,0.55,1.59,0.81c2.02,1.03,4.06,2.06,6.1,3.08c2.03,1.01,4.08,2.03,6.12,3.03
		c0.88,0.44,1.75,0.86,2.63,1.28c0.12,0.07,0.25,0.13,0.37,0.18c1.02,0.5,2.06,1,3.09,1.5c8.49,4.1,17.05,8.07,25.68,11.91
		c0.16,0.07,0.31,0.14,0.47,0.21c0.16,0.07,0.33,0.14,0.49,0.21c1.22,0.55,2.44,1.09,3.66,1.62c1.38,0.61,2.76,1.22,4.15,1.82
		c5.6,2.44,11.21,4.83,16.85,7.14c1.34,0.55,2.68,1.09,4.02,1.63c0.25,0.11,0.5,0.21,0.75,0.31c0.81,0.33,1.61,0.65,2.42,0.97
		c0.35,0.14,0.69,0.28,1.03,0.4c5.02,1.99,10.07,3.91,15.13,5.77c2.11,0.78,4.22,1.53,6.33,2.27c1.08,0.38,2.16,0.76,3.24,1.12
		c2.17,0.75,4.34,1.48,6.51,2.18c1.02,0.33,2.04,0.66,3.06,0.99c0.3,0.1,0.59,0.19,0.87,0.27c1.07,0.34,2.14,0.68,3.21,1
		c1.2,0.38,2.39,0.74,3.59,1.09c1.06,0.31,2.12,0.63,3.18,0.93c1.06,0.31,2.12,0.61,3.18,0.91c2.06,0.58,4.13,1.14,6.21,1.68
		c0.18,0.05,0.36,0.1,0.54,0.14c0.7,0.18,1.39,0.36,2.09,0.53c2.06,0.53,4.12,1.04,6.19,1.52c1.29,0.31,2.59,0.6,3.89,0.89
		c0.02,0,0.04,0.01,0.07,0.02c1.1,0.24,2.21,0.48,3.31,0.71c1.26,0.27,2.53,0.53,3.79,0.78c0.7,0.14,1.4,0.28,2.1,0.41
		c3.44,0.67,6.89,1.27,10.36,1.82c12.64,1.99,25.36,2.93,38.02-0.44c10.84-2.87,18.92-11.54,15.9-24.49
		c-2.48-10.59-7.51-19.87-13.83-28.44c-0.92-1.25-1.85-2.49-2.8-3.72c-0.94-1.23-1.89-2.45-2.85-3.66c-0.96-1.21-1.94-2.41-2.92-3.6
		c-0.98-1.19-1.97-2.37-2.97-3.54c-0.5-0.59-1-1.17-1.51-1.76c-0.5-0.58-1.01-1.16-1.52-1.73c-3.56-4.04-7.23-7.97-11-11.81
		c-0.54-0.55-1.08-1.1-1.62-1.64c-0.54-0.54-1.08-1.08-1.62-1.62c-1.02-1.01-2.04-2.01-3.07-3c-0.47-0.47-0.94-0.92-1.42-1.36
		c-0.15-0.16-0.31-0.31-0.47-0.45c-1.11-1.08-2.23-2.13-3.35-3.17c-1.22-1.14-2.44-2.26-3.67-3.36c-0.6-0.56-1.2-1.1-1.81-1.63
		c-0.89-0.82-1.79-1.61-2.69-2.39c-0.37-0.34-0.74-0.67-1.11-0.99c-1.49-1.31-3-2.61-4.51-3.9c-1.42-1.21-2.84-2.42-4.28-3.62
		c-0.47-0.39-0.95-0.79-1.42-1.17c-1.11-0.93-2.22-1.85-3.34-2.76c-0.2-0.16-0.4-0.33-0.6-0.49c-1.53-1.25-3.08-2.49-4.63-3.73
		c-1.4-1.13-2.82-2.25-4.24-3.36c-0.2-0.16-0.4-0.32-0.6-0.48c0.9-7.84,4.19-15.05,6.1-22.63c0.72-2.86,0.06-6.42,3.09-8.49
		c0.01,0.01,0.01,0.01,0.02,0.01c34.4,26.81,67.55,54.88,91.45,92.09c6.32,9.84,11.21,20.4,12.94,32.06
		C698.15,441.33,682.15,464.18,652.9,470.67z"/>
	<path class="st2" d="M568.14,347.53c3.97-9.53,6.91-19.5,12.07-28.53c25.93,20.35,50.36,42.25,70.02,68.93
		c6.32,8.57,11.35,17.85,13.83,28.44c3.02,12.95-5.06,21.62-15.9,24.5c-12.66,3.37-25.39,2.42-38.02,0.43
		c-42.31-6.67-81.83-22.04-120.69-39.33c-57.05-25.4-111.01-56.34-162.4-91.74c-26.38-18.17-51.7-37.69-75.35-59.38
		c-18.31-16.8-35.46-34.51-47.85-56.26c-3.53-6.2-6.16-12.81-6.05-20.26c0.14-9.87,3.8-15.3,13.16-18.8
		c10.08-3.77,20.6-3.87,30.99-2.74c31.87,3.47,62.17,13.09,91.95,24.53c1.37,0.53,2.93,0.72,3.79,2.14
		c-1.99,6.39-7.81,9.99-11.24,15.39c-1.97,3.1-3.5,6.82-7.03,8.77c-19.38-6.88-38.83-13.56-59.02-17.69
		c-9.32-1.91-18.67-3.75-28.37-3.51c0.04,2.35,1.37,3.51,2.25,4.83c9.63,14.27,21.51,26.57,34.03,38.26
		c8.47,7.91,16.82,16,26.41,22.63c7.22,7.05,15.55,12.71,23.53,18.8c26.05,19.88,53.57,37.59,81.53,54.63
		c3.94,2.4,8.14,4.37,12.22,6.54c9.21,6.53,19.42,11.32,29.26,16.77c22.33,12.22,45.2,23.32,68.59,33.35
		c0.74,0.32,1.57,0.44,2.35,0.65c9.64,4.98,19.6,9.15,30.06,12.07c0.37,0.31,0.7,0.75,1.13,0.91c21.6,8,43.43,15.23,66.22,19.1
		c6.71,1.14,13.44,2.63,21.26,1.61C613.54,386.6,591.31,366.62,568.14,347.53z"/>
</g>
</svg>
